<svg width="363" height="362" viewBox="0 0 363 362" fill="none" xmlns="http://www.w3.org/2000/svg">
<path d="M209.795 62.6461L320.673 41.945L299.972 152.823L299.646 154.571L300.496 156.132L354.447 255.187L242.599 269.762L240.836 269.992L239.614 271.283L162.079 353.203L113.654 251.333L112.891 249.727L111.285 248.964L9.41472 200.539L91.3348 123.005L92.6262 121.782L92.8559 120.019L107.431 8.17082L206.486 62.122L208.047 62.9724L209.795 62.6461Z" fill="#6CB46C" stroke="black" stroke-width="10"/>
<path d="M122.552 194C121.452 194 120.517 193.615 119.747 192.845C118.977 192.075 118.592 191.14 118.592 190.04V159.405C118.592 158.342 118.977 157.425 119.747 156.655C120.517 155.885 121.452 155.5 122.552 155.5H135.037C136.137 155.5 137.072 155.885 137.842 156.655C138.612 157.425 138.997 158.342 138.997 159.405V167.985L133.882 166.83V162.54C133.882 161.99 133.68 161.532 133.277 161.165C132.91 160.762 132.452 160.56 131.902 160.56H125.687C125.137 160.56 124.66 160.762 124.257 161.165C123.89 161.532 123.707 161.99 123.707 162.54V186.905C123.707 187.455 123.89 187.932 124.257 188.335C124.66 188.702 125.137 188.885 125.687 188.885H131.902C132.452 188.885 132.91 188.702 133.277 188.335C133.68 187.932 133.882 187.455 133.882 186.905V181.57H128.822L129.977 176.455H138.997V190.04C138.997 191.14 138.612 192.075 137.842 192.845C137.072 193.615 136.137 194 135.037 194H122.552ZM151.378 194C150.278 194 149.325 193.615 148.518 192.845C147.748 192.075 147.363 191.122 147.363 189.985V181.68C147.363 180.58 147.748 179.645 148.518 178.875C149.325 178.068 150.278 177.665 151.378 177.665H155.668C156.255 177.665 156.731 177.482 157.098 177.115C157.501 176.712 157.703 176.235 157.703 175.685V173.65C157.703 173.1 157.501 172.642 157.098 172.275C156.731 171.872 156.255 171.67 155.668 171.67H149.728L150.883 166.5H158.858C159.958 166.5 160.893 166.903 161.663 167.71C162.47 168.48 162.873 169.415 162.873 170.515V194H151.378ZM154.513 188.83H157.703V182.835H154.513C153.963 182.835 153.486 183.037 153.083 183.44C152.716 183.807 152.533 184.265 152.533 184.815V186.85C152.533 187.4 152.716 187.877 153.083 188.28C153.486 188.647 153.963 188.83 154.513 188.83ZM168.608 194V166.5H180.103C181.166 166.5 182.101 166.885 182.908 167.655C183.714 168.425 184.118 169.36 184.118 170.46V194H178.948V173.65C178.948 173.063 178.746 172.587 178.343 172.22C177.939 171.853 177.481 171.67 176.968 171.67H173.778V194H168.608ZM193.831 194C192.731 194 191.778 193.615 190.971 192.845C190.201 192.075 189.816 191.122 189.816 189.985V181.68C189.816 180.58 190.201 179.645 190.971 178.875C191.778 178.068 192.731 177.665 193.831 177.665H198.121C198.708 177.665 199.185 177.482 199.551 177.115C199.955 176.712 200.156 176.235 200.156 175.685V173.65C200.156 173.1 199.955 172.642 199.551 172.275C199.185 171.872 198.708 171.67 198.121 171.67H192.181L193.336 166.5H201.311C202.411 166.5 203.346 166.903 204.116 167.71C204.923 168.48 205.326 169.415 205.326 170.515V194H193.831ZM196.966 188.83H200.156V182.835H196.966C196.416 182.835 195.94 183.037 195.536 183.44C195.17 183.807 194.986 184.265 194.986 184.815V186.85C194.986 187.4 195.17 187.877 195.536 188.28C195.94 188.647 196.416 188.83 196.966 188.83ZM215.379 194C214.279 194 213.344 193.615 212.574 192.845C211.804 192.038 211.419 191.085 211.419 189.985V185.42H216.534V186.85C216.534 187.4 216.735 187.877 217.139 188.28C217.542 188.647 218.019 188.83 218.569 188.83H219.724C220.274 188.83 220.732 188.647 221.099 188.28C221.502 187.877 221.704 187.4 221.704 186.85V184.815C221.704 184.265 221.502 183.807 221.099 183.44C220.732 183.037 220.274 182.835 219.724 182.835H215.379C214.279 182.835 213.344 182.45 212.574 181.68C211.804 180.873 211.419 179.92 211.419 178.82V170.515C211.419 169.415 211.804 168.48 212.574 167.71C213.344 166.903 214.279 166.5 215.379 166.5H222.914C224.014 166.5 224.949 166.903 225.719 167.71C226.489 168.48 226.874 169.415 226.874 170.515V175.08H221.704V173.65C221.704 173.1 221.502 172.642 221.099 172.275C220.732 171.872 220.274 171.67 219.724 171.67H218.569C218.019 171.67 217.542 171.872 217.139 172.275C216.735 172.642 216.534 173.1 216.534 173.65V175.685C216.534 176.235 216.735 176.712 217.139 177.115C217.542 177.482 218.019 177.665 218.569 177.665H222.914C224.014 177.665 224.949 178.068 225.719 178.875C226.489 179.645 226.874 180.58 226.874 181.68V190.205C226.837 191.232 226.434 192.13 225.664 192.9C224.894 193.633 223.977 194 222.914 194H215.379ZM232.968 194V153.96L238.138 152.805V166.5H244.683L243.473 171.67H238.138V194H232.968ZM253.107 194C252.007 194 251.053 193.615 250.247 192.845C249.477 192.038 249.092 191.085 249.092 189.985V170.46C249.092 169.36 249.477 168.425 250.247 167.655C251.053 166.885 252.007 166.5 253.107 166.5H260.587C261.723 166.5 262.677 166.885 263.447 167.655C264.217 168.425 264.602 169.36 264.602 170.46V178.82C264.602 179.92 264.217 180.873 263.447 181.68C262.677 182.45 261.723 182.835 260.587 182.835H254.262V186.85C254.262 187.4 254.445 187.877 254.812 188.28C255.215 188.647 255.71 188.83 256.297 188.83H263.447L264.602 194H253.107ZM254.262 177.665H257.452C258.002 177.665 258.46 177.482 258.827 177.115C259.23 176.712 259.432 176.235 259.432 175.685V173.65C259.432 173.1 259.23 172.642 258.827 172.275C258.46 171.872 258.002 171.67 257.452 171.67H256.297C255.71 171.67 255.215 171.872 254.812 172.275C254.445 172.642 254.262 173.1 254.262 173.65V177.665Z" fill="white"/>
</svg>
